Coordinates
version=1
nRows=16
nColumns=36
inDegrees=yes

Units are S.I. units (second, meters, Newtons, ...)
If the header above contains a line with 'inDegrees', this indicates whether rotational values are in degrees (yes) or radians (no).

endheader
time	pelvis_tilt	pelvis_list	pelvis_rotation	pelvis_tx	pelvis_ty	pelvis_tz	hip_flexion_r	hip_adduction_r	hip_rotation_r	knee_angle_r	knee_angle_r_beta	ankle_angle_r	subtalar_angle_r	mtp_angle_r	hip_flexion_l	hip_adduction_l	hip_rotation_l	knee_angle_l	knee_angle_l_beta	ankle_angle_l	subtalar_angle_l	mtp_angle_l	lumbar_extension	lumbar_bending	lumbar_rotation	arm_flex_r	arm_add_r	arm_rot_r	elbow_flex_r	pro_sup_r	arm_flex_l	arm_add_l	arm_rot_l	elbow_flex_l	pro_sup_l
     29.85000000	     -0.01880294	      3.20385424	      7.02787581	      0.55798417	      0.99499188	      0.85011770	    -13.01775762	     -3.62568616	     -2.86874888	     28.32351357	      0.49433857	      4.59987001	    -10.92061412	     -7.49999987	     32.90065231	      6.17080594	      5.70069036	     41.42755498	      0.72304724	     11.78700241	     -5.68287924	     -7.49999987	    -15.35130224	     -0.04698209	      1.52138226	      9.84845914	    -14.37453000	      0.14432319	     34.55343647	     72.96383423	     -2.90197354	     -5.43407930	    -10.91903759	     16.08344522	     71.50437995
     29.86666670	     -0.59348112	      3.51745888	      6.94267566	      0.55840607	      0.99492064	      0.85006507	     -9.72358446	     -4.30305568	     -1.97223001	     34.29229787	      0.59851351	     -1.06621524	    -13.25110543	     -7.49999987	     32.22572188	      6.49160939	      5.63765259	     41.58980928	      0.72587911	     12.96347188	     -6.06644900	     -7.49999987	    -14.62345444	     -0.60564238	      1.45463204	      8.92287109	    -13.56167127	     -0.14582563	     33.42612397	     73.02808558	     -2.50147799	     -5.78622569	    -10.69554085	     16.22778034	     71.76355796
     29.88333330	     -1.19305525	      3.83229394	      6.66728126	      0.55850959	      0.99789712	      0.84901685	     -6.17373060	     -4.93612828	     -1.23522356	     39.88987906	      0.69620973	     -6.41381439	    -14.69233321	     -7.49999987	     31.39406267	      6.64204431	      5.42471106	     41.07959178	      0.71697413	     14.04507083	     -6.28719293	     -7.49999987	    -13.88595910	     -1.18152121	      1.40764620	      8.21188131	    -12.73186787	     -0.49782245	     32.22205843	     73.10141778	     -1.80371519	     -6.18692196	    -10.31998332	     16.34836080	     72.08358575
     29.90000000	     -1.66115581	      4.11152927	      6.23526657	      0.55840428	      1.00323767	      0.84721631	     -2.69565984	     -5.49792195	     -0.73298326	     44.78589979	      0.78166141	    -10.76798055	    -15.28063572	     -7.49999987	     30.14468207	      6.62520641	      5.03190544	     39.79783897	      0.69460333	     14.67334814	     -6.42801549	     -7.49999987	    -13.29450768	     -1.64236066	      1.31441042	      7.81702297	    -11.94564245	     -0.89596100	     30.96459339	     73.22565787	     -0.93160073	     -6.55145833	     -9.66519062	     16.63097379	     72.50766186
     29.91666670	     -1.79210508	      4.38379094	      5.68271017	      0.55766599	      1.00827677	      0.84632988	      0.73725695	     -6.09022448	     -0.43547392	     49.59373648	      0.86557399	    -13.70390430	    -15.37734447	     -7.49999987	     28.33910316	      6.54333744	      4.51758674	     37.97756700	      0.66283359	     14.74625791	     -6.56569739	     -7.49999987	    -13.12703400	     -1.99872825	      1.16392087	      7.74670419	    -11.25021221	     -1.17846935	     29.65428639	     72.72849929	      0.08915681	     -6.81349981	     -8.83390483	     17.20780928	     72.31055041
     29.93333330	     -1.90920108	      4.50410825	      5.05047781	      0.55627387	      1.01174178	      0.84695576	      4.58487983	     -6.54273415	     -0.18014935	     54.68075142	      0.95435915	    -15.32091722	    -15.69392386	     -7.49999987	     26.57592502	      6.30982778	      3.97447517	     36.15871687	      0.63108866	     14.45956121	     -6.74824753	     -7.49999987	    -13.04717637	     -2.22196328	      0.99972427	      7.86411431	    -10.67842533	     -0.79096183	     28.02256191	     73.18260390	      1.02306947	     -7.25385231	     -6.73757949	     18.37365094	     72.91833991
     29.95000000	     -1.67436859	      4.56743279	      4.37419865	      0.55517444	      1.01507983	      0.84758836	      8.08726002	     -6.83071706	      0.00887400	     59.39583613	      1.03665290	    -15.42922919	    -15.90364818	     -7.49999987	     24.55590457	      6.01891172	      3.49428019	     34.53657108	      0.60277688	     14.05690609	     -7.09142929	     -7.49999987	    -13.49416879	     -2.38309525	      1.13838392	      7.65139972	    -10.23290318	     -0.92203612	     26.79295681	     72.67849340	      2.20849359	     -7.48318580	     -6.33316124	     19.80053983	     72.42582809
     29.96666670	     -1.27471495	      4.49922434	      3.87346163	      0.55479077	      1.01866355	      0.84721821	     10.93720922	     -6.86912485	     -0.08082509	     62.99585152	      1.09948502	    -14.24011062	    -16.09435455	     -7.49999987	     22.46602364	      5.70214751	      3.28649160	     33.13428312	      0.57830234	     13.58956555	     -7.64419505	     -7.49999987	    -14.11548458	     -2.34633568	      1.02969952	      7.29601270	     -9.93060001	     -0.97187582	     25.63150111	     72.26294438	      3.21041568	     -7.82625173	     -5.80720874	     21.66656617	     72.06631977
     29.98333330	     -0.86010946	      4.37444718	      3.36655274	      0.55392043	      1.02135067	      0.84710023	     13.19672350	     -6.72490907	     -0.17330945	     65.28358893	      1.13941357	    -11.74131399	    -16.16990096	     -7.49999987	     20.40059808	      5.33953798	      2.98753911	     31.78194398	      0.55469957	     13.25433946	     -7.99186058	     -7.49999987	    -14.59707657	     -2.22961956	      0.98875153	      6.77124984	     -9.75543905	     -1.00601706	     24.46970819	     72.18606232	      4.06460650	     -8.17119406	     -5.49124859	     23.69252678	     72.01843050
     30.00000000	     -0.51315480	      4.13565642	      2.91793463	      0.55185959	      1.02294757	      0.84780405	     15.11846722	     -6.36680767	     -0.22011947	     66.21793701	      1.15572102	     -8.03698607	    -16.01966793	     -7.49999987	     18.35346345	      4.87163871	      2.58906098	     30.22772966	      0.52757341	     13.13542499	     -7.80463728	     -7.49999987	    -14.98317337	     -2.05501003	      1.13326741	      6.06176310	     -9.73018839	     -1.12501351	     23.77610396	     72.01809803	      4.87619914	     -8.57110068	     -5.54919541	     26.04689064	     71.84274471
     30.01666670	     -0.18663761	      3.73282745	      2.54108894	      0.54917650	      1.02549686	      0.84779052	     16.96850729	     -5.91397022	     -0.30753775	     65.89695728	      1.15011887	     -3.66094190	    -15.33191425	     -7.49999987	     16.23893506	      4.29934446	      2.29084316	     28.43655436	      0.49631150	     13.04928280	     -7.43042405	     -7.49999987	    -15.36142432	     -1.52264195	     -0.11183545	      6.39398765	     -9.53605800	     -0.73563450	     22.55610273	     75.56146046	      4.62889758	     -8.98777433	     -8.36215101	     29.46891408	     75.12012300
     30.03333330	     -0.02451420	      3.32294984	      2.08363908	      0.54606776	      1.03055332	      0.84643527	     19.08504142	     -5.48064544	     -0.16993638	     64.70218946	      1.12926624	     -0.40902001	    -14.89107155	     -7.49999987	     14.19246036	      3.73684331	      1.84201873	     26.46776561	      0.46194966	     12.94367379	     -6.91053419	     -7.49999987	    -15.53605431	     -1.04469469	      0.04486892	      5.83311746	     -9.71717177	     -1.03403744	     22.40231637	     75.46355397	      5.72674281	     -9.37407638	     -8.52154880	     31.09420554	     75.16475234
     30.05000000	      0.35829525	      2.91990039	      1.66474136	      0.54225703	      1.03790332	      0.84495448	     20.75231873	     -5.05926087	     -0.07745298	     62.21511157	      1.08585854	      1.54632258	    -14.64463726	     -7.49999987	     11.80749023	      3.22679073	      1.45177689	     24.35458203	      0.42506764	     12.54395602	     -6.57859789	     -7.49999987	    -16.15915627	     -0.48629728	      0.02247140	      5.42283139	     -9.79266672	     -1.66368723	     22.55672064	     74.73732338	      6.90322786	     -9.78295010	     -8.87537010	     32.70392263	     74.66215068
     30.06666670	      0.61392312	      2.33542831	      1.30468427	      0.53863843	      1.04492513	      0.84476961	     22.06183293	     -4.47275190	     -0.29780811	     58.60281579	      1.02281209	      2.64974894	    -14.05976284	     -7.49999987	      9.67393441	      2.56815136	      1.10942866	     22.47580841	      0.39227686	     12.39806718	     -6.22045193	     -7.49999987	    -16.70742067	      0.35559905	     -0.09100807	      5.13009295	     -9.94477116	     -2.22421173	     22.53823948	     74.66323390	      8.01269230	    -10.16710117	     -9.09703815	     33.71353186	     74.79470200
     30.08333330	      0.90636104	      1.90002173	      0.88682754	      0.53593573	      1.04948845	      0.84615564	     22.95088744	     -3.94075060	     -0.52797520	     54.36775549	      0.94889634	      2.85694088	    -13.77003125	     -7.49999987	      7.68392475	      2.10793347	      0.84253479	     20.81794093	      0.36334161	     12.09374292	     -6.17078856	     -7.49999987	    -17.41451721	      0.94179452	     -0.11705455	      4.81842341	    -10.04217000	     -2.92840089	     22.65293952	     73.78254918	      9.06989673	    -10.57002737	     -9.29999910	     34.77106854	     74.09446169
     30.10000000	      1.31429111	      1.38120079	      0.54054008	      0.53470183	      1.05141131	      0.84736375	     23.40728403	     -3.35632087	     -0.93059810	     49.77417873	      0.86872330	      3.28734163	    -12.64233826	     -7.49999987	      5.76450161	      1.57312214	      0.58025412	     19.45307519	      0.33952021	     12.14131445	     -5.69085191	     -7.49999987	    -18.24849175	      1.68295984	      0.02563956	      4.61316337	    -10.17930426	     -3.70868860	     22.13228219	     73.91385258	     10.21041629	    -10.94553346	     -9.04033709	     35.66524969	     74.51214478
